<svg width="24" height="24" viewBox="0 0 24 24" fill="none" xmlns="http://www.w3.org/2000/svg">
<path d="M5.5 2.25C5.91421 2.25 6.25 2.58579 6.25 3V6C6.25 6.41421 5.91421 6.75 5.5 6.75C5.08579 6.75 4.75 6.41421 4.75 6V5.25H4.04545C3.88228 5.25 3.75 5.38228 3.75 5.54546V10.5C3.75 13.1234 5.87665 15.25 8.5 15.25H8.50195C11.1244 15.249 13.25 13.1227 13.25 10.5V5.54545C13.25 5.38228 13.1177 5.25 12.9545 5.25H11.75V6C11.75 6.41421 11.4142 6.75 11 6.75C10.5858 6.75 10.25 6.41421 10.25 6V3C10.25 2.58579 10.5858 2.25 11 2.25C11.4142 2.25 11.75 2.58579 11.75 3V3.75H12.9545C13.9461 3.75 14.75 4.55385 14.75 5.54545V10.5C14.75 13.6783 12.3776 16.3025 9.30711 16.6984C9.64021 18.7133 11.3906 20.25 13.5 20.25H14C16.1322 20.25 17.8976 18.6799 18.2032 16.6328C17.073 16.2912 16.25 15.2417 16.25 14C16.25 12.4812 17.4812 11.25 19 11.25C20.5188 11.25 21.75 12.4812 21.75 14C21.75 15.2722 20.8861 16.3427 19.7129 16.6567C19.387 19.5231 16.9536 21.75 14 21.75H13.5C10.5649 21.75 8.1435 19.5509 7.79347 16.7105C4.67432 16.3596 2.25 13.7129 2.25 10.5V5.54546C2.25 4.55385 3.05385 3.75 4.04545 3.75H4.75V3C4.75 2.58579 5.08579 2.25 5.5 2.25Z" fill="black"/>
</svg>
