<svg width="24" height="24" viewBox="0 0 24 24" fill="none" xmlns="http://www.w3.org/2000/svg">
<path d="M5.5 4.5H4.04545C3.46807 4.5 3 4.96806 3 5.54545V10.5C3 13.5376 5.46243 16 8.5 16M11 4.5H12.9545C13.5319 4.5 14 4.96806 14 5.54545V10.5C14 13.5376 11.5376 16 8.5 16M8.5 16C8.5 18.7614 10.7386 21 13.5 21H14C16.7614 21 19 18.7614 19 16M19 16C20.1046 16 21 15.1046 21 14C21 12.8954 20.1046 12 19 12C17.8954 12 17 12.8954 17 14C17 15.1046 17.8954 16 19 16ZM5.5 3V6M11 3V6" stroke="black" stroke-width="1.5" stroke-linecap="round" stroke-linejoin="round"/>
</svg>
