<svg width="24" height="24" viewBox="0 0 24 24" fill="none" xmlns="http://www.w3.org/2000/svg">
<path fill-rule="evenodd" clip-rule="evenodd" d="M9.27605 3.99146C10.9116 2.8466 13.0884 2.8466 14.7239 3.99146L19.7239 7.49146C20.9937 8.38032 21.75 9.83282 21.75 11.3828V17.0002C21.75 19.6235 19.6234 21.7502 17 21.7502H7C4.37665 21.7502 2.25 19.6235 2.25 17.0002V11.3828C2.25 9.83282 3.00625 8.38032 4.27605 7.49146L9.27605 3.99146ZM9 16.2502C8.58579 16.2502 8.25 16.586 8.25 17.0002C8.25 17.4144 8.58579 17.7502 9 17.7502H15C15.4142 17.7502 15.75 17.4144 15.75 17.0002C15.75 16.586 15.4142 16.2502 15 16.2502H9Z" fill="black"/>
</svg>
