<svg width="24" height="24" viewBox="0 0 24 24" fill="none" xmlns="http://www.w3.org/2000/svg">
<path fill-rule="evenodd" clip-rule="evenodd" d="M19.9551 10.2049C19.9551 5.81151 16.3936 2.25 12.0003 2.25C7.60692 2.25 4.04541 5.81151 4.04541 10.2049C4.04541 13.4301 5.96472 16.2054 8.72029 17.454C9.13624 17.6424 9.43687 17.9231 9.57648 18.2488L10.3917 20.1508C10.9978 21.565 13.0026 21.5649 13.6087 20.1507L14.4236 18.249C14.5632 17.9233 14.8639 17.6426 15.2799 17.4541C18.0357 16.2056 19.9551 13.4302 19.9551 10.2049ZM14.1212 12.121C15.293 10.949 15.293 9.05019 14.1212 7.87822C12.9493 6.70726 11.0507 6.70726 9.87891 7.87822C8.70708 9.05019 8.70708 10.949 9.87891 12.121C11.0507 13.293 12.9493 13.293 14.1212 12.121Z" fill="black"/>
</svg>
