<svg width="24" height="24" viewBox="0 0 24 24" fill="none" xmlns="http://www.w3.org/2000/svg">
<path d="M13.7343 17.9536C13.9666 17.4116 14.4333 17.0143 14.9704 16.7709C17.4678 15.6395 19.2051 13.125 19.2051 10.2049C19.2051 6.22572 15.9794 3 12.0003 3C8.02113 3 4.79541 6.22572 4.79541 10.2049C4.79541 13.1249 6.53257 15.6393 9.02983 16.7708C9.5669 17.0142 10.0336 17.4114 10.2658 17.9534L11.081 19.8553C11.4274 20.6634 12.573 20.6634 12.9193 19.8553L13.7343 17.9536Z" stroke="black" stroke-width="1.5" stroke-linecap="round" stroke-linejoin="round"/>
<path fill-rule="evenodd" clip-rule="evenodd" d="M14.1211 7.87822C15.2929 9.05019 15.2929 10.949 14.1211 12.121C12.9493 13.293 11.0507 13.293 9.87885 12.121C8.70703 10.949 8.70703 9.05019 9.87885 7.87822C11.0507 6.70726 12.9493 6.70726 14.1211 7.87822Z" stroke="black" stroke-width="1.5" stroke-linecap="round" stroke-linejoin="round"/>
</svg>
