<svg width="24" height="24" viewBox="0 0 24 24" fill="none" xmlns="http://www.w3.org/2000/svg">
<path fill-rule="evenodd" clip-rule="evenodd" d="M18.8944 12.5307L15.7203 15.7047L15.7126 15.7126L12.5306 18.8946C12.05 19.3751 11.4995 19.7431 10.9117 19.9983C10.8297 20.034 10.7469 20.0674 10.6635 20.0987C8.79537 20.7986 6.60845 20.3973 5.1058 18.8946C3.05555 16.8444 3.05555 13.5203 5.1058 11.47L11.4698 5.10605C13.52 3.0558 16.8441 3.0558 18.8944 5.10605C20.9446 7.1563 20.9446 10.4804 18.8944 12.5307ZM12.5304 6.16671C13.9949 4.70224 16.3693 4.70224 17.8337 6.16671C19.2982 7.63118 19.2982 10.0055 17.8337 11.47L15.1822 14.1215L9.87891 8.81822L12.5304 6.16671ZM8.99463 13.2376C9.28753 12.9447 9.28753 12.4698 8.99463 12.1769C8.70174 11.8841 8.22686 11.8841 7.93397 12.1769L7.22686 12.8841C6.15292 13.958 6.15292 15.6992 7.22686 16.7731C7.51976 17.066 7.99463 17.066 8.28753 16.7731C8.58042 16.4802 8.58042 16.0054 8.28753 15.7125C7.79937 15.2243 7.79937 14.4329 8.28753 13.9447L8.99463 13.2376Z" fill="black"/>
</svg>
