<svg width="24" height="24" viewBox="0 0 24 24" fill="none" xmlns="http://www.w3.org/2000/svg">
<path d="M8.25 10C8.25 7.92893 9.92893 6.25 12 6.25C14.0711 6.25 15.75 7.92893 15.75 10C15.75 12.0711 14.0711 13.75 12 13.75C9.92893 13.75 8.25 12.0711 8.25 10Z" fill="black"/>
<path fill-rule="evenodd" clip-rule="evenodd" d="M12.0607 21.7498C12.0405 21.7499 12.0203 21.75 12 21.75C12 21.75 12.0001 21.75 12 21.75C6.61526 21.75 2.25 17.3848 2.25 12C2.25 6.61522 6.61522 2.25 12 2.25C17.3848 2.25 21.75 6.61522 21.75 12C21.75 17.3645 17.4175 21.7172 12.0607 21.7498ZM3.75 12C3.75 7.44365 7.44365 3.75 12 3.75C16.5563 3.75 20.25 7.44365 20.25 12C20.25 14.4641 19.1697 16.6759 17.4569 18.1876C17.4135 18.0567 17.3653 17.9273 17.3123 17.7996C17.0234 17.1019 16.5998 16.4681 16.0659 15.9341C15.532 15.4002 14.8981 14.9767 14.2005 14.6877C13.5028 14.3987 12.7551 14.25 12 14.25C11.2449 14.25 10.4972 14.3987 9.79961 14.6877C9.10199 14.9767 8.46811 15.4002 7.93418 15.9341C7.40024 16.4681 6.9767 17.1019 6.68773 17.7996C6.63481 17.9273 6.5866 18.0568 6.54314 18.1876C4.83031 16.6759 3.75 14.4641 3.75 12Z" fill="black"/>
</svg>
