<svg width="24" height="24" viewBox="0 0 24 24" fill="none" xmlns="http://www.w3.org/2000/svg">
<path d="M12 21C16.9706 21 21 16.9706 21 12C21 7.02944 16.9706 3 12 3C7.02944 3 3 7.02944 3 12C3 16.9706 7.02944 21 12 21ZM12 21C13.8394 21 15.55 20.4482 16.9751 19.5011C16.9264 19.0156 16.8068 18.539 16.6194 18.0866C16.3682 17.48 15.9999 16.9288 15.5356 16.4645C15.0713 16.0002 14.5201 15.6319 13.9135 15.3806C13.3068 15.1293 12.6567 15 12.0001 15C11.3434 15 10.6933 15.1293 10.0866 15.3806C9.48001 15.6319 8.92881 16.0002 8.46452 16.4645C8.00022 16.9288 7.63193 17.48 7.38065 18.0866C7.19326 18.539 7.07369 19.0156 7.025 19.5011C8.45013 20.4482 10.1606 21 12 21ZM15 10C15 11.6569 13.6569 13 12 13C10.3431 13 9 11.6569 9 10C9 8.34315 10.3431 7 12 7C13.6569 7 15 8.34315 15 10Z" stroke="black" stroke-width="1.5" stroke-linecap="round" stroke-linejoin="round"/>
</svg>
