<svg width="408" height="392" viewBox="0 0 408 392" fill="none" xmlns="http://www.w3.org/2000/svg">
<path d="M407.133 94.7355C407.133 105.905 403.919 116.272 398.375 125.031C388.33 141.102 370.491 151.709 350.16 151.709C318.579 151.709 293.105 126.236 293.105 94.7355C293.105 64.4405 316.731 39.6904 346.625 37.9225C347.829 37.7619 348.954 37.7619 350.16 37.7619C381.58 37.7619 407.133 63.235 407.133 94.7355Z" fill="#FFFAEC"/>
<path d="M398.375 125.031C388.33 141.102 370.491 151.709 350.16 151.709C318.579 151.709 293.105 126.236 293.105 94.7356C293.105 64.4406 316.731 39.6904 346.625 37.9225C346.463 38.2437 346.303 38.4856 346.062 38.8068C336.338 52.5479 331.758 68.5394 337.463 85.0126C343.973 103.977 361.571 117.879 380.937 122.781C386.723 124.227 392.509 124.951 398.375 125.031Z" fill="#FFF4D7"/>
<path d="M219.201 261.885L91.7416 269.924C81.0195 270.819 71.1931 263.672 69.1084 252.951L66.7254 241.038L22.9489 31.0859C21.4585 24.5337 23.2467 18.2811 27.4146 13.5152C30.692 9.04883 36.3486 5.77145 42.9014 5.47373L165.894 1.3057C176.019 0.709693 185.251 7.85665 187.335 17.6844L238.261 235.976C241.238 248.483 232.305 260.99 219.201 261.885Z" fill="#7545E5"/>
<path d="M234.658 260.802L107.199 268.844C96.4777 269.736 86.65 262.291 84.5653 251.868L38.4059 29.7058C35.7245 16.9004 45.2545 4.69101 58.3584 4.09494L81.884 3.49888L181.351 0.223404C191.478 -0.370753 200.71 6.47792 202.794 16.6021L248.358 211.07L253.718 234.595C256.697 247.401 247.762 259.612 234.658 260.802Z" fill="#7545E5"/>
<path d="M57.8463 100.315C57.9733 100.821 58.0361 101.328 58.0361 101.834V102.024C57.9733 104.683 56.7069 106.962 54.7448 108.354L51.833 94.2386C53.7317 94.6817 55.4411 95.8211 56.5171 97.3401C56.644 97.5299 56.7703 97.7197 56.8967 97.9102C57.0871 98.2263 57.2769 98.543 57.4032 98.8591C57.593 99.3022 57.7828 99.8088 57.8463 100.315Z" fill="#7545E5"/>
<path d="M77.0869 215.964C98.6092 233.119 123.549 250.653 147.35 266.288L121.27 267.934L107.217 268.821C96.4567 269.707 86.6455 262.3 84.5564 251.856L82.0877 239.955L77.0869 215.964Z" fill="#7545E5"/>
<path d="M234.642 260.781L233.123 260.845C240.339 240.842 245.023 222.611 247.239 206.153L248.378 211.091L253.696 234.575C256.67 247.425 247.745 259.642 234.642 260.781Z" fill="#7545E5"/>
<path d="M234.658 260.802L107.199 268.844C96.4777 269.736 86.65 262.291 84.5653 251.868L38.4059 29.7059C35.7245 16.9005 45.2545 4.69108 58.3584 4.09502L81.884 3.49896C65.8031 51.4466 66.3991 105.051 83.6728 152.7C89.9255 169.973 98.8594 186.947 112.261 199.753C134.298 220.897 166.461 228.343 196.54 225.065C214.408 223.279 231.681 218.217 248.358 211.07L253.718 234.595C256.697 247.401 247.762 259.612 234.658 260.802Z" fill="#4C00FF"/>
<path d="M218.578 215.834L110.176 222.386C101.541 223.279 93.7978 217.324 92.0109 208.687L59.8477 50.2544C57.7624 39.8319 65.5062 30.0036 75.9299 29.7058L104.816 28.8133L180.756 26.4303C189.096 26.132 196.243 31.4928 198.029 39.5335L229.298 174.737L234.064 194.989C236.445 205.113 229 215.239 218.578 215.834Z" fill="#FFFAEC"/>
<path d="M218.578 215.834L110.176 222.387C101.541 223.279 93.7978 217.324 92.0109 208.687L59.8477 50.2545C57.7624 39.832 65.5062 30.0037 75.9299 29.7059L104.816 28.8135C99.7539 33.5775 95.8824 39.832 93.2017 46.0865C81.2907 74.3769 83.0769 108.029 97.371 134.832C111.665 161.931 138.766 181.886 168.845 187.84C189.988 192.01 213.516 188.436 229.298 174.737L234.064 194.989C236.445 205.113 229 215.24 218.578 215.834Z" fill="#FFF4D7"/>
<path d="M196.84 115.176C197.137 119.942 196.84 124.706 195.647 129.173C191.48 148.828 175.099 162.826 152.467 162.826C122.09 162.826 92.0118 137.511 85.4609 106.54C80.3972 82.4176 90.8216 61.8691 110.476 53.8276C113.751 52.6374 117.324 51.7449 120.9 51.1488C123.281 50.8505 125.664 50.5528 128.345 50.5528C158.72 50.5528 188.798 75.8672 195.647 106.54C196.244 109.517 196.84 112.496 196.84 115.176Z" fill="#FFDA78"/>
<g opacity="0.3">
<path d="M196.842 115.176C192.672 116.666 187.908 117.26 183.44 117.857C168.848 119.345 153.659 117.26 140.854 110.113C128.049 102.966 117.922 90.459 115.838 75.8672C114.648 67.2298 116.434 58.5936 120.902 51.1488C123.283 50.8505 125.666 50.5528 128.347 50.5528C158.722 50.5528 188.8 75.8672 195.649 106.54C196.246 109.517 196.842 112.496 196.842 115.176Z" fill="white"/>
</g>
<path d="M195.647 129.173C191.48 148.828 175.099 162.825 152.467 162.825C122.09 162.825 92.0118 137.511 85.4609 106.54C80.3972 82.4175 90.8216 61.869 110.476 53.8275C108.391 58.8919 105.712 63.9543 104.519 67.2297C100.647 76.7591 99.7549 87.7783 102.733 97.9043C107.499 114.283 120.9 127.387 136.683 133.343C152.764 139.596 170.633 138.703 186.714 133.045C189.693 131.853 192.968 130.662 195.647 129.173Z" fill="#FEC737"/>
<path d="M143.388 15.2208C143.378 16.6744 142.255 17.8786 140.805 17.991L125.206 19.2015C123.572 19.3284 122.179 18.0303 122.19 16.3913C122.201 14.937 123.323 13.7328 124.773 13.6204L140.373 12.4099C142.006 12.283 143.399 13.5811 143.388 15.2208Z" fill="#FFFAEC"/>
<path d="M115.514 16.4396C115.504 17.8939 114.381 19.0981 112.932 19.2104L112.393 19.2346C110.759 19.3609 109.366 18.0628 109.378 16.4237C109.388 14.9695 110.51 13.7659 111.96 13.6529L112.499 13.6294C114.133 13.5025 115.525 14.8006 115.514 16.4396Z" fill="#FFFAEC"/>
<path d="M178.008 240.569C178.747 245.56 175.203 249.417 170.174 249.417C165.375 249.417 160.688 245.56 159.949 240.569C159.21 235.577 162.722 231.493 167.521 231.493C172.55 231.493 177.269 235.577 178.008 240.569Z" fill="#FFFAEC"/>
<path d="M167.201 111.965C169.728 113.802 171.358 116.121 170.414 119.213C169.759 121.243 167.631 122.596 165.189 122.547C163.276 122.499 161.306 121.727 159.441 120.953C156.347 119.648 153.317 118.392 150.234 117.136C150.924 119.503 151.571 121.919 152.209 124.287C153.17 127.862 154.112 131.825 152.066 134.482C149.884 137.478 144.049 137.382 140.522 134.386C137.336 131.728 136.405 127.815 135.72 124.287C135.165 121.581 134.6 118.827 134.045 116.121C132.233 117.233 130.369 118.344 128.557 119.455C125.64 121.291 122.3 123.127 118.332 122.403C113.866 121.581 109.982 116.991 110.51 113.222C111.073 109.84 114.391 107.907 117.522 106.313C118.565 105.781 119.556 105.249 120.61 104.766C119.328 104.235 118.099 103.703 116.817 103.172C112.971 101.577 108.785 99.6443 106.704 96.2622C104.485 92.4935 106.319 87.9516 110.404 87.0813C114.047 86.3571 118.222 88.2411 121.953 90.0292C122.896 90.4641 123.903 90.9472 124.857 91.4302C126.383 92.1069 127.931 92.8801 129.478 93.6532C129.228 92.2999 128.935 90.9954 128.684 89.6427C127.705 84.8107 124.786 76.9832 132.416 76.5966C134.814 76.4519 137.58 77.7081 139.198 79.7375C140.433 81.235 140.951 83.0714 141.394 84.8107C142.107 87.5168 142.883 90.2704 143.649 92.9766C146.484 91.4785 149.33 90.0292 152.176 88.5794C153.683 87.758 155.306 86.9848 157.197 86.9366C159.618 86.8884 162.353 88.2411 163.918 90.2704C168.668 96.6005 161.285 99.4996 157.335 101.916C155.808 102.882 154.217 103.8 152.69 104.766C154.64 105.684 156.643 106.602 158.604 107.569C161.148 108.777 164.623 110.13 167.201 111.965Z" fill="white"/>
<path d="M170.414 119.213C169.759 121.243 167.631 122.596 165.189 122.547C163.276 122.499 161.306 121.727 159.441 120.953C156.347 119.648 153.317 118.392 150.234 117.136C150.924 119.504 151.571 121.919 152.209 124.287C153.17 127.862 154.112 131.825 152.066 134.482C149.884 137.478 144.049 137.382 140.522 134.386C137.336 131.728 136.405 127.815 135.72 124.287C135.165 121.581 134.6 118.827 134.045 116.121C132.233 117.233 130.369 118.344 128.557 119.455C125.64 121.291 122.3 123.127 118.332 122.403C113.866 121.581 109.982 116.991 110.51 113.222C111.073 109.84 114.391 107.907 117.522 106.313C118.565 105.781 119.556 105.249 120.61 104.766C119.328 104.235 118.099 103.703 116.817 103.172C112.971 101.577 108.785 99.6443 106.704 96.2622C104.485 92.4935 106.319 87.9516 110.404 87.0814C114.047 86.3571 118.222 88.2411 121.953 90.0292C122.896 90.4641 123.903 90.9472 124.857 91.4303C125.757 93.5561 127.017 95.6338 128.666 97.5667C133.188 102.882 139.742 106.651 146.457 109.018C153.341 111.434 160.481 112.401 167.201 111.965C169.728 113.802 171.358 116.121 170.414 119.213Z" fill="#FFFAEC"/>
<path d="M399.981 245.906C399.981 244.766 399.918 243.627 399.918 242.551C398.652 193.43 385.802 144.562 362.824 101.139C360.799 97.2766 355.988 95.821 352.126 97.8466C348.266 99.9357 346.809 104.683 348.835 108.545C370.673 149.816 382.89 196.279 384.093 242.931C384.473 257.363 383.966 275.91 376.434 291.482C372.826 298.951 367.698 305.092 361.812 309.523C362.191 308.13 362.571 306.737 362.951 305.345C364.913 297.432 367.065 287.051 365.546 276.543C363.837 264.833 357.57 254.705 348.771 249.388C338.833 243.501 325.667 243.564 315.096 249.64C305.727 255.021 298.828 264.643 296.169 275.974C292.941 289.646 296.486 304.965 305.411 315.789C312.88 324.905 324.085 330.918 335.795 332.374C330.288 342.628 322.945 352.693 313.007 360.732C294.713 375.608 269.773 380.103 251.099 371.873C231.223 363.137 220.019 338.641 227.615 320.473C228.375 318.511 228.311 316.485 227.678 314.65C262.494 241.664 272.685 186.594 258.695 146.461C252.112 127.851 239.636 112.826 222.672 101.432L223.247 103.86L225.653 113.988L228.501 126.332C235.274 133.612 240.338 142.03 243.756 151.715C244.643 154.184 245.402 156.779 246.035 159.438C246.352 160.641 246.605 161.906 246.858 163.236C247.111 164.565 247.365 165.894 247.554 167.287C247.808 168.996 248.061 170.705 248.188 172.477C248.504 174.883 248.631 177.288 248.757 179.757C249.074 187.986 248.567 196.785 247.238 206.153C245.023 222.611 240.338 240.842 233.122 260.845C227.995 275.404 221.538 290.849 213.753 307.181C196.598 297.305 172.607 282.81 147.35 266.288C123.549 250.653 98.6093 233.119 77.087 215.964C49.6777 194.127 27.9656 172.731 21.4464 156.209C17.458 146.208 16.0025 137.789 17.0784 131.016V130.952C17.2054 130.13 17.3317 129.37 17.5215 128.611C17.6479 128.041 17.7749 127.534 18.0274 127.028C18.0909 126.711 18.2179 126.395 18.3442 126.079C18.534 125.509 18.7879 124.939 19.104 124.433C19.4202 123.673 19.8639 122.976 20.307 122.281C28.7254 110 49.6149 109.874 50.0579 109.874H50.1208C51.8303 109.874 53.4128 109.304 54.742 108.354C56.7041 106.962 57.9705 104.683 58.0334 102.024V101.834C58.0334 101.328 57.9705 100.821 57.8436 100.315C57.7801 99.8087 57.5903 99.3022 57.4005 98.859C57.2741 98.543 57.0843 98.2262 56.8939 97.9101C56.7676 97.7197 56.6413 97.5299 56.5143 97.3401C55.4384 95.821 53.7289 94.6816 51.8302 94.2385C51.3237 94.1116 50.7543 94.0487 50.1843 94.0487C48.7915 94.0487 20.4967 94.1116 7.33009 113.229C-1.08903 125.446 -1.27883 141.904 6.76069 162.033C15.7492 184.821 46.766 213.242 82.0878 239.955C94.8742 249.64 108.167 259.072 121.27 267.934C161.53 295.28 199.319 317.182 210.334 323.449C210.017 325.031 209.828 326.551 209.701 328.133C209.511 329.652 209.448 331.171 209.448 332.69C209.385 347.629 215.841 362.885 226.982 374.089C227.488 374.658 228.058 375.228 228.627 375.608C233.312 380.103 238.692 383.71 244.706 386.369C253.125 390.04 262.24 391.813 271.609 391.813C289.396 391.813 307.816 385.356 323.009 373.012C335.858 362.505 346.429 348.199 354.152 330.855C369.218 326.424 382.827 314.587 390.677 298.381C392.259 295.027 393.651 291.608 394.727 288.191C399.475 273.695 400.172 258.566 399.981 245.906ZM347.632 301.42C346.366 306.168 344.784 311.422 342.758 316.865H342.188C332.883 317.245 323.515 312.941 317.691 305.787C312.247 299.205 309.842 290.153 311.171 281.734C311.234 280.974 311.361 280.278 311.551 279.582C313.197 272.555 317.438 266.542 322.945 263.377C325.856 261.667 329.212 260.845 332.377 260.845C335.351 260.845 338.264 261.541 340.606 262.997C345.417 265.845 348.898 271.732 349.911 278.822C349.974 279.075 349.974 279.202 349.974 279.455V279.518C350.86 286.988 349.278 294.71 347.632 301.42Z" fill="#FEB800"/>
<path d="M248.757 179.757C248.63 177.288 248.503 174.883 248.187 172.477C248.06 170.705 247.808 168.996 247.554 167.287C247.364 165.894 247.111 164.565 246.858 163.236C246.605 161.906 246.351 160.641 246.035 159.438C245.402 156.779 244.642 154.184 243.756 151.715C240.338 142.03 235.274 133.612 228.501 126.332L225.652 113.988C233.881 121.964 239.895 131.396 243.756 142.41C247.554 153.297 249.2 165.768 248.757 179.757Z" fill="#FEB902"/>
<path d="M311.551 279.582C313.197 272.555 317.438 266.542 322.946 263.377C325.857 261.667 329.212 260.845 332.377 260.845C335.352 260.845 338.264 261.541 340.606 262.997C345.417 265.845 348.898 271.732 349.911 278.822C349.975 279.075 349.975 279.202 349.975 279.455C350.354 276.163 350.354 272.809 349.911 269.517C348.898 262.427 345.417 256.54 340.606 253.691C338.264 252.236 335.352 251.54 332.377 251.54C329.212 251.54 325.857 252.362 322.946 254.072C317.438 257.237 313.197 263.25 311.551 270.276C310.665 274.011 310.602 277.936 311.172 281.734C311.235 280.974 311.362 280.278 311.551 279.582Z" fill="#FEB902"/>
<path d="M399.982 245.906C399.539 259.578 397.513 274.96 390.677 289.077C382.827 305.282 369.218 317.119 354.152 321.55C346.43 338.894 335.859 353.2 323.009 363.708C307.817 375.988 289.396 382.507 271.609 382.507C262.24 382.507 253.126 380.736 244.707 377.064C224.64 368.265 211.411 348.325 209.701 328.133C209.512 329.652 209.449 331.171 209.449 332.69C209.385 347.629 215.842 362.885 226.983 374.089C227.489 374.658 228.059 375.228 228.628 375.608C233.313 380.103 238.693 383.71 244.707 386.369C253.126 390.04 262.24 391.813 271.609 391.813C289.396 391.813 307.817 385.356 323.009 373.012C335.859 362.505 346.43 348.199 354.152 330.855C369.218 326.424 382.827 314.587 390.677 298.381C392.26 295.027 393.652 291.608 394.728 288.191C399.412 273.695 400.172 258.566 399.982 245.906Z" fill="#FEB902"/>
<path d="M57.3984 98.859C57.2721 98.5429 57.0823 98.2262 56.8919 97.9101C56.7655 97.7196 56.6392 97.5298 56.5123 97.34C55.0567 99.3021 52.7778 100.569 50.1187 100.569H50.0559C49.6128 100.569 28.7234 100.695 20.3049 112.975C17.1399 117.596 16.0633 123.546 17.0764 130.952C17.2034 130.13 17.3297 129.37 17.5195 128.611C17.6459 128.104 17.8356 127.534 18.0254 127.028C18.0889 126.711 18.2158 126.395 18.3422 126.078C18.532 125.509 18.7859 124.939 19.102 124.433C19.4181 123.673 19.8618 122.976 20.3049 122.281C28.7234 110 49.6128 109.874 50.0559 109.874H50.1187C54.4867 109.874 57.9685 106.392 58.0313 102.024V101.834C58.0313 101.328 57.9685 100.821 57.8415 100.315C57.778 99.8087 57.5882 99.3021 57.3984 98.859Z" fill="#FEB902"/>
<path d="M209.446 323.005C209.446 324.715 209.509 326.424 209.699 328.133C209.826 326.551 210.015 325.031 210.331 323.449C210.079 323.259 209.762 323.132 209.446 323.005ZM213.75 297.875C159.692 266.795 38.598 190.075 21.4443 146.905C19.102 141.081 17.6458 135.763 17.0764 131.016C16.0004 137.789 17.456 146.208 21.4443 156.209C38.598 199.38 159.692 276.1 213.75 307.181C238.311 255.464 250.021 212.799 248.755 179.757C247.742 211.344 236.095 250.907 213.75 297.875ZM349.972 279.518C349.529 283.886 348.579 288.191 347.63 292.115C346.364 296.862 344.782 302.116 342.756 307.56H342.186C332.881 307.94 323.513 303.635 317.689 296.483C314.207 292.305 311.992 287.115 311.169 281.734C309.84 290.153 312.245 299.205 317.689 305.787C323.513 312.941 332.881 317.245 342.186 316.865H342.756C344.782 311.422 346.364 306.168 347.63 301.42C349.276 294.71 350.858 286.988 349.972 279.518ZM399.916 233.246C398.65 184.125 385.8 135.257 362.822 91.8327C360.797 87.9719 355.986 86.5157 352.124 88.5413C348.263 90.6304 346.807 95.3779 348.833 99.2393C349.023 99.6189 349.212 99.9357 349.402 100.315C350.035 99.3022 350.985 98.4795 352.124 97.8466C355.986 95.821 360.797 97.2766 362.822 101.139C385.8 144.562 398.65 193.43 399.916 242.551C399.916 243.627 399.979 244.766 399.979 245.906C400.043 241.412 400.043 237.234 399.916 233.246Z" fill="#FEB902"/>
<path d="M382.301 107.512C382.301 115.789 379.006 123.263 373.623 128.807C368.078 134.593 360.283 138.129 351.685 138.129C334.729 138.129 321.068 124.388 321.068 107.512C321.068 93.9319 329.908 82.3604 342.283 78.3423C345.256 77.4587 348.39 76.8962 351.685 76.8962C368.56 76.8962 382.301 90.6374 382.301 107.512Z" fill="#7545E5"/>
<path d="M373.623 128.807C368.078 134.593 360.283 138.129 351.685 138.129C334.729 138.129 321.068 124.388 321.068 107.512C321.068 93.9319 329.908 82.3605 342.283 78.3423C339.952 92.727 343.086 107.593 353.774 118.12C359.238 123.424 366.23 127.04 373.623 128.807Z" fill="#4C00FF"/>
<path d="M241.161 266.025C245.21 267.401 247.134 272.284 246.679 276.536C246.222 280.789 243.993 284.609 242.055 288.421C236.319 299.7 232.769 312.085 231.661 324.69C231.111 330.948 230.869 337.939 226.376 342.331C223.52 345.121 219.177 346.291 215.306 345.311C211.435 344.331 208.172 341.236 206.989 337.422C205.609 332.975 206.826 327.659 204.036 323.932C201.742 320.866 197.598 320.051 193.983 318.791C186.657 316.238 180.322 310.945 176.507 304.19C174.765 301.106 173.555 297.729 172.907 294.247C171.283 285.52 179.482 277.78 188.105 279.89C188.157 279.903 188.208 279.916 188.259 279.928C198.207 282.413 207.611 286.828 216.964 279.974C223.126 275.458 232.468 263.069 241.161 266.025Z" fill="#05030B"/>
<path d="M71.6075 93.9154C74.8518 105.89 67.814 118.159 55.8388 121.403C43.8637 124.648 22.071 120.17 18.8266 108.195C15.5822 96.2197 32.1272 81.3302 44.1023 78.0858C56.0775 74.8408 68.3631 81.9396 71.6075 93.9154Z" fill="#05030B"/>
</svg>
