<svg width="25" height="24" viewBox="0 0 25 24" fill="none" xmlns="http://www.w3.org/2000/svg">
<path fill-rule="evenodd" clip-rule="evenodd" d="M11.9232 1.1829C12.2929 0.921989 12.7976 0.941065 13.1478 1.23954L15.9632 3.63797L19.6497 3.93192L19.7406 3.94364C20.1865 4.02049 20.5311 4.39112 20.5677 4.84989L20.8607 8.53543L23.2601 11.3518C23.5782 11.7256 23.5785 12.2751 23.2601 12.6487L20.8607 15.4641L20.5677 19.1507C20.5284 19.6397 20.1389 20.0294 19.6497 20.0686L15.9632 20.3616L13.1478 22.761C12.7742 23.0791 12.2246 23.0791 11.8509 22.761L9.03451 20.3616L5.34897 20.0686C4.85978 20.0295 4.47037 19.6398 4.431 19.1507L4.13705 15.4641L1.73862 12.6487C1.4202 12.2751 1.4204 11.7256 1.73862 11.3518L4.13705 8.53543L4.431 4.84989L4.44272 4.75907C4.5194 4.31298 4.89019 3.96865 5.34897 3.93192L9.03451 3.63797L11.8509 1.23954L11.9232 1.1829ZM17.2074 8.79325C16.8169 8.40274 16.1838 8.40277 15.7933 8.79325L11.0003 13.5862L9.20737 11.7932L9.13119 11.7249C8.73844 11.4045 8.15942 11.4272 7.7933 11.7932C7.42719 12.1594 7.40459 12.7384 7.72494 13.1311L7.7933 13.2073L10.2933 15.7073L10.3695 15.7757C10.7622 16.0957 11.3414 16.0733 11.7074 15.7073L17.2074 10.2073C17.5977 9.81689 17.5975 9.18378 17.2074 8.79325Z" fill="#103FFF"/>
</svg>
