<svg width="92" height="30" viewBox="0 0 92 30" fill="none" xmlns="http://www.w3.org/2000/svg">
<path d="M0 6C0 2.68629 2.68629 0 6 0H77C80.3137 0 83 2.68629 83 6V18C83 21.3137 80.3137 24 77 24H0V6Z" fill="#FEB902"/>
<path fill-rule="evenodd" clip-rule="evenodd" d="M20.4732 15.4749V14.4064C20.4732 14.1418 20.5783 13.8881 20.7654 13.701L21.5209 12.9454C21.9105 12.5558 21.9105 11.9242 21.5209 11.5346L20.7654 10.779C20.5783 10.5919 20.4732 10.3382 20.4732 10.0736V9.00432C20.4732 8.45336 20.0265 8.00671 19.4755 8.00671H18.4063C18.1417 8.00671 17.888 7.9016 17.7009 7.71451L16.9453 6.95894C16.5557 6.56935 15.924 6.56935 15.5345 6.95894L14.7789 7.71451C14.5918 7.9016 14.338 8.00671 14.0735 8.00671H13.0042C12.7395 8.00671 12.4856 8.11192 12.2985 8.29919C12.1114 8.48645 12.0064 8.7404 12.0066 9.00512V10.0736C12.0066 10.3382 11.9015 10.5919 11.7144 10.779L10.9588 11.5346C10.5692 11.9242 10.5692 12.5558 10.9588 12.9454L11.7144 13.701C11.9015 13.8881 12.0066 14.1418 12.0066 14.4064V15.4749C12.0066 16.0258 12.4532 16.4725 13.0042 16.4725H14.0735C14.338 16.4725 14.5918 16.5776 14.7789 16.7647L15.5345 17.5203C15.924 17.9098 16.5557 17.9098 16.9453 17.5203L17.7009 16.7647C17.888 16.5776 18.1417 16.4725 18.4063 16.4725H19.4748C19.7395 16.4727 19.9934 16.3677 20.1806 16.1805C20.3679 15.9934 20.4732 15.7396 20.4732 15.4749Z" fill="white" stroke="white" stroke-width="0.8" stroke-linecap="round" stroke-linejoin="round"/>
<path fill-rule="evenodd" clip-rule="evenodd" d="M14.0756 11.1579C13.8567 10.9392 13.7913 10.6101 13.9097 10.3241C14.0281 10.0382 14.3071 9.85181 14.6166 9.85181C14.9261 9.85181 15.205 10.0382 15.3235 10.3241C15.4419 10.6101 15.3765 10.9392 15.1576 11.1579C14.8588 11.4568 14.3744 11.4568 14.0756 11.1579Z" fill="white" stroke="#EDA71B" stroke-linecap="round" stroke-linejoin="round"/>
<path fill-rule="evenodd" clip-rule="evenodd" d="M17.3217 14.4039C17.1028 14.185 17.0374 13.8559 17.1558 13.57C17.2742 13.284 17.5532 13.0977 17.8627 13.0977C18.1722 13.0977 18.4512 13.284 18.5696 13.57C18.688 13.8559 18.6225 14.185 18.4037 14.4039C18.1049 14.7026 17.6205 14.7026 17.3217 14.4039Z" fill="white" stroke="#EDA71B" stroke-width="0.8" stroke-linecap="round"/>
<path d="M18.4039 10.0752L14.0751 14.4048" stroke="#EDA71B" stroke-width="0.8" stroke-linecap="round"/>
<path d="M0 24H4V30L0 24Z" fill="#EDA71B"/>
</svg>
