<svg width="20" height="21" viewBox="0 0 20 21" fill="none" xmlns="http://www.w3.org/2000/svg">
<path d="M12 8.25C12.4142 8.25 12.75 8.58579 12.75 9V11C12.75 12.2426 13.7574 13.25 15 13.25H16C18.0711 13.25 19.75 14.9289 19.75 17C19.75 19.0711 18.0711 20.75 16 20.75H8C7.58579 20.75 7.25 20.4142 7.25 20C7.25 19.5858 7.58579 19.25 8 19.25H16C17.2426 19.25 18.25 18.2426 18.25 17C18.25 15.7574 17.2426 14.75 16 14.75H15C12.9289 14.75 11.25 13.0711 11.25 11V9C11.25 8.58579 11.5858 8.25 12 8.25ZM4 10C6.20914 10 8 11.7909 8 14C8 16.2091 6 20 4 20C2 20 0 16.2091 0 14C0 11.7909 1.79086 10 4 10ZM4 12.5C3.17157 12.5 2.5 13.1716 2.5 14C2.5 14.8284 3.17157 15.5 4 15.5C4.82843 15.5 5.5 14.8284 5.5 14C5.5 13.1716 4.82843 12.5 4 12.5ZM12 0C13.6569 0 15 1 15 3C15 4.12295 14.0541 5.56102 13.2246 6.60645C12.5741 7.4263 11.3839 7.47071 10.7031 6.67578C9.89199 5.72862 9 4.41344 9 3.20898C9.00006 0.999953 10.3432 0 12 0ZM12 2C11.4477 2 11 2.44772 11 3C11 3.55228 11.4477 4 12 4C12.5523 4 13 3.55228 13 3C13 2.44772 12.5523 2 12 2Z" fill="#28303F"/>
</svg>
