<svg width="54" height="54" viewBox="0 0 54 54" fill="none" xmlns="http://www.w3.org/2000/svg">
<rect width="54" height="54" rx="27" fill="#DBEAFE"/>
<path fill-rule="evenodd" clip-rule="evenodd" d="M27.4744 18.2424C27.8611 17.8557 28.4881 17.8557 28.8748 18.2424L35.7571 25.1248C36.1439 25.5115 36.1439 26.1385 35.7571 26.5252C35.3704 26.9119 34.7435 26.9119 34.3567 26.5252L27.4744 19.6428C27.0877 19.2561 27.0877 18.6291 27.4744 18.2424ZM32.03 18.6566C32.9449 17.7417 34.4282 17.7417 35.3431 18.6566C36.258 19.5715 36.258 21.0548 35.3431 21.9697L35 22.3128L31.6869 18.9997L32.03 18.6566ZM27.5303 21.4998L32.5 26.4694L30.7457 28.2237L21.6346 27.3955L27.5303 21.4998ZM20.2539 28.7761L29.365 29.6044L23.7472 35.2222C22.3749 36.5945 20.1499 36.5945 18.7775 35.2222C17.4052 33.8498 17.4052 31.6248 18.7775 30.2525L20.2539 28.7761Z" fill="#0165FC"/>
</svg>
